Coordinates
version=1
nRows=29
nColumns=24
inDegrees=yes

Units are S.I. units (second, meters, Newtons, ...)
Angles are in degrees.

endheader
time	pelvis_tilt	pelvis_list	pelvis_rotation	pelvis_tx	pelvis_ty	pelvis_tz	hip_flexion_r	hip_adduction_r	hip_rotation_r	knee_angle_r	ankle_angle_r	subtalar_angle_r	mtp_angle_r	hip_flexion_l	hip_adduction_l	hip_rotation_l	knee_angle_l	ankle_angle_l	subtalar_angle_l	mtp_angle_l	lumbar_extension	lumbar_bending	lumbar_rotation
      1.38750000	      4.10104166	      3.24001507	     -1.04817158	      0.15526734	      1.03226590	      0.29119451	     13.13525829	     -6.98838056	     -9.72444810	    -70.64593311	    -14.15768271	     -9.96596586	      2.00148772	      4.63842962	      8.56705316	      4.30683281	    -11.24764618	      2.97459335	    -14.01162064	     -0.92076867	     -7.31785116	     -5.06496572	      4.51013410
      1.39166667	      4.16151763	      3.08790384	     -1.09353434	      0.16011943	      1.03313971	      0.29102199	     13.68771886	     -6.79876584	     -9.59110745	    -70.57371071	    -12.92106325	     -9.68405746	      2.03364700	      4.15369704	      8.41649480	      4.34063724	    -11.02297945	      3.11129290	    -13.99698407	     -0.94135587	     -7.43685956	     -4.87101207	      4.46382885
      1.39583333	      4.20460480	      2.93539145	     -1.12125162	      0.16493786	      1.03394311	      0.29082541	     14.24766600	     -6.61006158	     -9.48059956	    -70.45378886	    -11.72104597	     -9.40805214	      2.06570164	      3.69934429	      8.26708372	      4.38081831	    -10.82035693	      3.23565548	    -13.99950258	     -0.96357006	     -7.55872192	     -4.66929836	      4.41441087
      1.40000000	      4.26109090	      2.77438915	     -1.14016636	      0.16976243	      1.03477366	      0.29062020	     14.76919844	     -6.40871867	     -9.38191042	    -70.25643133	    -10.59256568	     -9.15935593	      2.09465575	      3.22137697	      8.10955976	      4.43642674	    -10.60058394	      3.35415803	    -14.00051293	     -0.98731375	     -7.70178380	     -4.45688513	      4.35963009
      1.40416667	      4.32290459	      2.63196611	     -1.15643012	      0.17459713	      1.03556792	      0.29041254	     15.27340209	     -6.22963478	     -9.28862108	    -70.01410806	     -9.50878624	     -8.89420946	      2.12001372	      2.72725434	      7.97248658	      4.49746275	    -10.35809728	      3.47221236	    -14.00941672	     -1.01644805	     -7.82624528	     -4.26865750	      4.29015864
      1.40833333	      4.36741430	      2.47696320	     -1.15172440	      0.17940770	      1.03631228	      0.29017173	     15.77729105	     -6.04026109	     -9.22376810	    -69.70908504	     -8.50043437	     -8.67663296	      2.14128067	      2.26244211	      7.82177794	      4.56687482	    -10.13688826	      3.58114653	    -14.02494770	     -1.04546902	     -7.95506567	     -4.06278361	      4.21997391
      1.41250000	      4.45318406	      2.34121103	     -1.14989427	      0.18424073	      1.03709237	      0.28993641	     16.21864243	     -5.87476485	     -9.16295142	    -69.34714793	     -7.55390578	     -8.45493693	      2.15573889	      1.73128808	      7.69274244	      4.64483216	     -9.86989218	      3.68755023	    -14.03897947	     -1.08202616	     -8.10454443	     -3.88005388	      4.13323328
      1.41666667	      4.52351056	      2.19588339	     -1.12570992	      0.18905679	      1.03782603	      0.28967290	     16.65581704	     -5.70023559	     -9.12757391	    -68.92289455	     -6.67687829	     -8.27460718	      2.16259393	      1.22428407	      7.55283306	      4.73683815	     -9.61825675	      3.78445505	    -14.06231532	     -1.12516463	     -8.25559897	     -3.68905004	      4.03370726
      1.42083333	      4.58296158	      2.05056811	     -1.08563091	      0.19384550	      1.03850727	      0.28940039	     17.08829542	     -5.52598066	     -9.10885212	    -68.44222837	     -5.87231966	     -8.13733260	      2.16874475	      0.73784575	      7.41059584	      4.82859043	     -9.38137093	      3.88217004	    -14.07593970	     -1.16044770	     -8.40715008	     -3.49000989	      3.94798623
      1.42500000	      4.64992408	      1.92007433	     -1.04458348	      0.19864492	      1.03916975	      0.28912494	     17.49683029	     -5.37187327	     -9.09721970	    -67.90906387	     -5.13609510	     -8.01703003	      2.16990589	      0.23264187	      7.28393831	      4.93037157	     -9.12010363	      3.97592287	    -14.08708196	     -1.19754221	     -8.55218962	     -3.31680060	      3.84291503
      1.42916667	      4.74859337	      1.78992358	     -0.98984323	      0.20345462	      1.03984395	      0.28883043	     17.84628552	     -5.22444662	     -9.10848048	    -67.31508880	     -4.44463709	     -7.92192899	      2.16692981	     -0.31217507	      7.15587498	      5.03363208	     -8.84999974	      4.06960515	    -14.09974314	     -1.23634288	     -8.72776273	     -3.13488807	      3.72890331
      1.43333333	      4.82620701	      1.68259001	     -0.92694170	      0.20827327	      1.04043895	      0.28850770	     18.20462964	     -5.10590502	     -9.12300333	    -66.67787139	     -3.81361694	     -7.84017574	      2.15172977	     -0.83908266	      7.05320020	      5.15217337	     -8.56582671	      4.15423339	    -14.12577312	     -1.29116318	     -8.87360800	     -2.97607383	      3.57666540
      1.43750000	      4.87560067	      1.56294358	     -0.84504512	      0.21306773	      1.04096881	      0.28817818	     18.57155101	     -4.97303950	     -9.16185938	    -65.97565161	     -3.24719330	     -7.86933538	      2.14814043	     -1.31544584	      6.93141253	      5.24067981	     -8.31960743	      4.25177949	    -14.12018850	     -1.31888905	     -8.98205031	     -2.78783608	      3.49059947
      1.44166667	      4.97065247	      1.43511034	     -0.75245675	      0.21785013	      1.04154751	      0.28785706	     18.86113733	     -4.82899670	     -9.20453161	    -65.20317601	     -2.72678500	     -7.81454119	      2.13430966	     -1.85341468	      6.79790507	      5.38027686	     -8.04877054	      4.34447463	    -14.11465199	     -1.36236841	     -9.17781570	     -2.63383267	      3.33351365
      1.44583333	      5.06677439	      1.34207917	     -0.66386502	      0.22265958	      1.04206173	      0.28752230	     19.13838880	     -4.72965297	     -9.24870916	    -64.39705010	     -2.25375150	     -7.81977346	      2.10994645	     -2.40384472	      6.70166672	      5.51077953	     -7.75211321	      4.43106641	    -14.11912514	     -1.42053243	     -9.34349188	     -2.48996682	      3.14882061
      1.45000000	      5.15039416	      1.24766371	     -0.56051804	      0.22744749	      1.04253567	      0.28718362	     19.40606113	     -4.62538272	     -9.30175593	    -63.52969944	     -1.80593466	     -7.88265993	      2.07416277	     -2.92967194	      6.59974989	      5.64303101	     -7.47495741	      4.50204824	    -14.12541495	     -1.49753671	     -9.51317875	     -2.35420789	      2.96719995
      1.45416667	      5.18207507	      1.14393696	     -0.43455680	      0.23224627	      1.04289982	      0.28682146	     19.70469402	     -4.51459506	     -9.37842781	    -62.60219785	     -1.40673921	     -7.95458938	      2.06202168	     -3.38140657	      6.48276474	      5.76402682	     -7.23774549	      4.61453536	    -14.09556078	     -1.53055380	     -9.59764849	     -2.19802014	      2.86889511
      1.45833333	      5.28346391	      1.06204703	     -0.32361177	      0.23705793	      1.04333042	      0.28647588	     19.90738911	     -4.42494946	     -9.43975435	    -61.61897210	     -1.06448141	     -8.03453294	      2.03451272	     -3.93773248	      6.38802504	      5.89890733	     -6.93733945	      4.71215625	    -14.06595388	     -1.59160560	     -9.77145758	     -2.07082403	      2.65849205
      1.46250000	      5.34487358	      0.96740986	     -0.18579539	      0.24186050	      1.04368701	      0.28611723	     20.12348073	     -4.32184299	     -9.52630633	    -60.56950286	     -0.72285120	     -8.14870617	      2.01571849	     -4.42824755	      6.27314827	      6.02984684	     -6.68447782	      4.81226723	    -14.03193776	     -1.63725887	     -9.90131771	     -1.92352325	      2.51366295
      1.46666667	      5.42575157	      0.89831444	     -0.06309329	      0.24667577	      1.04400936	      0.28577870	     20.30467261	     -4.24120932	     -9.59128066	    -59.47690716	     -0.43840107	     -8.28379487	      1.98817561	     -4.95741100	      6.18462505	      6.16611806	     -6.39247348	      4.90894094	    -13.99394532	     -1.70081104	    -10.04529421	     -1.81542589	      2.30757569
      1.47083333	      5.47685103	      0.83543308	      0.07354300	      0.25148890	      1.04425575	      0.28543071	     20.49488048	     -4.16773497	     -9.66505804	    -58.33097673	     -0.16530121	     -8.42673260	      1.96241792	     -5.44213621	      6.09907355	      6.30051509	     -6.12613296	      5.00955426	    -13.95625189	     -1.76368458	    -10.15592456	     -1.71084318	      2.12643494
      1.47500000	      5.50584527	      0.76539852	      0.22143869	      0.25629976	      1.04444011	      0.28508118	     20.68178474	     -4.08337508	     -9.74581160	    -57.12296563	      0.10538279	     -8.58166711	      1.94451504	     -5.89302937	      6.00125180	      6.43255590	     -5.88082833	      5.11415057	    -13.90462039	     -1.80836884	    -10.24683236	     -1.59577097	      1.98436941
      1.47916667	      5.54521866	      0.71301633	      0.36430011	      0.26112270	      1.04459804	      0.28475158	     20.83603120	     -4.01386556	     -9.81684008	    -55.86220617	      0.33126235	     -8.75342231	      1.92466030	     -6.36430458	      5.91937454	      6.56679792	     -5.61584833	      5.21949266	    -13.84579196	     -1.85451038	    -10.33945671	     -1.50355513	      1.81175681
      1.48333333	      5.55791346	      0.67143595	      0.50658419	      0.26595980	      1.04467220	      0.28442432	     20.99873327	     -3.95296050	     -9.88151972	    -54.55261278	      0.52875341	     -8.93373545	      1.90337525	     -6.80630829	      5.84765760	      6.69967680	     -5.35299593	      5.32586125	    -13.78777012	     -1.90156445	    -10.39751550	     -1.42109626	      1.63278645
      1.48750000	      5.61643117	      0.62814385	      0.64303388	      0.27081215	      1.04479324	      0.28411974	     21.08075666	     -3.88363557	     -9.94402253	    -53.17156580	      0.65830885	     -9.14215641	      1.87179113	     -7.31098396	      5.77014137	      6.82318884	     -5.06407723	      5.43147629	    -13.73121365	     -1.96723435	    -10.50170406	     -1.34415538	      1.41700240
      1.49166667	      5.61652432	      0.59526921	      0.79093968	      0.27567123	      1.04479197	      0.28381980	     21.20267336	     -3.82448266	    -10.00901840	    -51.74342893	      0.79573281	     -9.33755377	      1.83982404	     -7.73742022	      5.70032502	      6.95377649	     -4.80743043	      5.53740434	    -13.67807681	     -2.03133691	    -10.54880145	     -1.27951201	      1.23351780
      1.49583333	      5.63381088	      0.57022264	      0.93315404	      0.28054335	      1.04477923	      0.28353372	     21.28115910	     -3.77001186	    -10.07439615	    -50.25899859	      0.89414817	     -9.54585050	      1.80223405	     -8.19170906	      5.63733328	      7.07578385	     -4.53183836	      5.64524988	    -13.61606647	     -2.10139466	    -10.61049598	     -1.22780149	      1.04525943
      1.50000000	      5.59894370	      0.54642473	      1.08421521	      0.28541859	      1.04465159	      0.28324722	     21.39167022	     -3.71442936	    -10.13620207	    -48.72400671	      1.00635080	     -9.72659618	      1.77091544	     -8.57509288	      5.57340616	      7.20450802	     -4.28798803	      5.75189161	    -13.54665892	     -2.15326317	    -10.62250265	     -1.16497235	      0.90150871
      1.50416667	      5.60214755	      0.52856320	      1.22164857	      0.29032744	      1.04455122	      0.28299933	     21.43141694	     -3.65741452	    -10.19583296	    -47.12294595	      1.01851057	     -9.95427755	      1.72470949	     -9.01624710	      5.51249327	      7.31024798	     -4.01146328	      5.86516797	    -13.48263583	     -2.22253938	    -10.66303693	     -1.13501566	      0.70502241
